<?xml version="1.0" encoding="iso-8859-1"?>
<!-- Uploaded to: SVG Repo, www.svgrepo.com, Generator: SVG Repo Mixer Tools -->
<svg fill="#000000" height="800px" width="800px" version="1.1" id="Layer_1" xmlns="http://www.w3.org/2000/svg" xmlns:xlink="http://www.w3.org/1999/xlink" 
	 viewBox="0 0 512 512" xml:space="preserve">
<g>
	<g>
		<g>
			<path d="M363.789,436.548h43.116c16.344,0,29.642-13.297,29.642-29.642V277.558c0-16.345-13.298-29.642-29.642-29.642h-43.116
				c-16.344,0-29.642,13.297-29.642,29.642v129.347C334.147,423.251,347.445,436.548,363.789,436.548z M350.316,277.558
				c0-7.43,6.044-13.474,13.474-13.474h43.116c7.43,0,13.474,6.044,13.474,13.474v129.347c0,7.43-6.044,13.474-13.474,13.474
				h-43.116c-7.43,0-13.474-6.044-13.474-13.474V277.558z"/>
			<path d="M509.633,476.642l-21.558-21.558c-3.157-3.157-8.275-3.157-11.433,0c-3.157,3.156-3.157,8.275,0,11.432l7.758,7.758H51.2
				c-7.43,0-13.474-6.044-13.474-13.474V27.602l7.758,7.758c3.157,3.157,8.275,3.157,11.433,0c3.157-3.156,3.157-8.275,0-11.432
				L35.359,2.369c-3.157-3.157-8.275-3.157-11.433,0L2.368,23.927c-3.157,3.156-3.157,8.275,0,11.432
				c3.157,3.157,8.275,3.157,11.433,0l7.757-7.758V460.8c0,16.345,13.298,29.642,29.642,29.642h433.198l-7.758,7.758
				c-3.157,3.156-3.157,8.275,0,11.432c1.579,1.579,3.649,2.368,5.717,2.368c2.068,0,4.138-0.79,5.717-2.368l21.558-21.558
				C512.79,484.918,512.79,479.799,509.633,476.642z"/>
			<path d="M234.442,436.548h43.116c16.344,0,29.642-13.297,29.642-29.642V158.99c0-16.345-13.298-29.642-29.642-29.642h-43.116
				c-16.344,0-29.642,13.297-29.642,29.642v247.916C204.8,423.251,218.098,436.548,234.442,436.548z M220.968,158.99
				c0-7.43,6.044-13.474,13.474-13.474h43.116c7.43,0,13.474,6.044,13.474,13.474v247.916c0,7.43-6.044,13.474-13.474,13.474
				h-43.116c-7.43,0-13.474-6.044-13.474-13.474V158.99z"/>
			<path d="M105.094,436.548h43.116c16.344,0,29.642-13.297,29.642-29.642V29.642C177.852,13.298,164.554,0,148.21,0h-43.116
				C88.75,0,75.452,13.298,75.452,29.642v377.263C75.452,423.251,88.75,436.548,105.094,436.548z M91.621,29.642
				c0-7.429,6.045-13.474,13.474-13.474h43.116c7.43,0,13.474,6.044,13.474,13.474v377.263c0,7.43-6.044,13.474-13.474,13.474
				h-43.116c-7.43,0-13.474-6.044-13.474-13.474V29.642z"/>
		</g>
	</g>
</g>
</svg>